<svg width="25" height="28" viewBox="0 0 25 28" fill="none" xmlns="http://www.w3.org/2000/svg">
<path d="M12.4546 16.44C12.0625 16.44 11.734 16.3085 11.4693 16.0454C11.2036 15.7833 11.0707 15.4582 11.0707 15.07C11.0707 14.6818 11.2036 14.3562 11.4693 14.0932C11.734 13.8311 12.0625 13.7 12.4546 13.7C12.8466 13.7 13.1755 13.8311 13.4412 14.0932C13.706 14.3562 13.8384 14.6818 13.8384 15.07C13.8384 15.4582 13.706 15.7833 13.4412 16.0454C13.1755 16.3085 12.8466 16.44 12.4546 16.44ZM6.9192 16.44C6.52711 16.44 6.19822 16.3085 5.93252 16.0454C5.66774 15.7833 5.53536 15.4582 5.53536 15.07C5.53536 14.6818 5.66774 14.3562 5.93252 14.0932C6.19822 13.8311 6.52711 13.7 6.9192 13.7C7.31128 13.7 7.64018 13.8311 7.90587 14.0932C8.17065 14.3562 8.30303 14.6818 8.30303 15.07C8.30303 15.4582 8.17065 15.7833 7.90587 16.0454C7.64018 16.3085 7.31128 16.44 6.9192 16.44ZM17.9899 16.44C17.5978 16.44 17.2694 16.3085 17.0046 16.0454C16.7389 15.7833 16.6061 15.4582 16.6061 15.07C16.6061 14.6818 16.7389 14.3562 17.0046 14.0932C17.2694 13.8311 17.5978 13.7 17.9899 13.7C18.382 13.7 18.7104 13.8311 18.9752 14.0932C19.2409 14.3562 19.3737 14.6818 19.3737 15.07C19.3737 15.4582 19.2409 15.7833 18.9752 16.0454C18.7104 16.3085 18.382 16.44 17.9899 16.44ZM12.4546 21.92C12.0625 21.92 11.734 21.7885 11.4693 21.5254C11.2036 21.2633 11.0707 20.9382 11.0707 20.55C11.0707 20.1618 11.2036 19.8367 11.4693 19.5746C11.734 19.3115 12.0625 19.18 12.4546 19.18C12.8466 19.18 13.1755 19.3115 13.4412 19.5746C13.706 19.8367 13.8384 20.1618 13.8384 20.55C13.8384 20.9382 13.706 21.2633 13.4412 21.5254C13.1755 21.7885 12.8466 21.92 12.4546 21.92ZM6.9192 21.92C6.52711 21.92 6.19822 21.7885 5.93252 21.5254C5.66774 21.2633 5.53536 20.9382 5.53536 20.55C5.53536 20.1618 5.66774 19.8367 5.93252 19.5746C6.19822 19.3115 6.52711 19.18 6.9192 19.18C7.31128 19.18 7.64018 19.3115 7.90587 19.5746C8.17065 19.8367 8.30303 20.1618 8.30303 20.55C8.30303 20.9382 8.17065 21.2633 7.90587 21.5254C7.64018 21.7885 7.31128 21.92 6.9192 21.92ZM17.9899 21.92C17.5978 21.92 17.2694 21.7885 17.0046 21.5254C16.7389 21.2633 16.6061 20.9382 16.6061 20.55C16.6061 20.1618 16.7389 19.8367 17.0046 19.5746C17.2694 19.3115 17.5978 19.18 17.9899 19.18C18.382 19.18 18.7104 19.3115 18.9752 19.5746C19.2409 19.8367 19.3737 20.1618 19.3737 20.55C19.3737 20.9382 19.2409 21.2633 18.9752 21.5254C18.7104 21.7885 18.382 21.92 17.9899 21.92ZM2.76768 27.4C2.00657 27.4 1.35478 27.1319 0.812313 26.5958C0.270771 26.0588 0 25.4135 0 24.66V5.48C0 4.7265 0.270771 4.08169 0.812313 3.54556C1.35478 3.00852 2.00657 2.74 2.76768 2.74H4.15152V0H6.9192V2.74H17.9899V0H20.7576V2.74H22.1414C22.9025 2.74 23.5543 3.00852 24.0968 3.54556C24.6383 4.08169 24.9091 4.7265 24.9091 5.48V24.66C24.9091 25.4135 24.6383 26.0588 24.0968 26.5958C23.5543 27.1319 22.9025 27.4 22.1414 27.4H2.76768ZM2.76768 24.66H22.1414V10.96H2.76768V24.66Z" fill="#4F4F4F"/>
</svg>
