<svg width="25" height="26" viewBox="0 0 25 26" fill="none" xmlns="http://www.w3.org/2000/svg">
<path fill-rule="evenodd" clip-rule="evenodd" d="M2.94596 0.83331C3.21934 0.560312 3.54763 0.348535 3.90905 0.212016C4.27047 0.0754971 4.65677 0.0173523 5.04236 0.041435C5.42795 0.0655176 5.80401 0.171278 6.14564 0.351707C6.48727 0.532136 6.78665 0.783115 7.02395 1.08801L9.82855 4.6913C10.3426 5.35227 10.5238 6.21324 10.3207 7.02578L9.46606 10.4478C9.42188 10.6251 9.42426 10.8107 9.47299 10.9868C9.52172 11.1628 9.61514 11.3233 9.74418 11.4525L13.5831 15.2918C13.7126 15.4211 13.8733 15.5147 14.0496 15.5634C14.2259 15.6122 14.4119 15.6144 14.5893 15.5699L18.0095 14.7152C18.4105 14.6149 18.829 14.6072 19.2334 14.6924C19.6378 14.7777 20.0175 14.9538 20.3438 15.2074L23.9469 18.0107C25.2421 19.0185 25.3609 20.9327 24.2015 22.0905L22.586 23.7062C21.4298 24.8625 19.7017 25.3704 18.0908 24.8032C13.9678 23.3524 10.2243 20.9918 7.13801 17.8966C4.04325 14.8105 1.68288 11.0673 0.231979 6.94453C-0.333629 5.33508 0.174168 3.60531 1.33038 2.44901L2.94596 0.83331Z" fill="#4F4F4F"/>
</svg>
