<svg width="137" height="144" viewBox="0 0 137 144" fill="none" xmlns="http://www.w3.org/2000/svg">
<path d="M131.195 105.459C125.124 118.901 114.695 129.9 101.595 136.677C88.4947 143.454 73.491 145.611 59.0125 142.799C44.534 139.987 31.4283 132.371 21.8171 121.183C12.2058 109.996 6.6517 95.892 6.05384 81.1551C5.45597 66.4182 9.84937 51.9108 18.5228 39.9817C27.1962 28.0525 39.6419 19.3997 53.845 15.4242C68.0481 11.4488 83.1773 12.3833 96.7833 18.0764C110.389 23.7696 121.675 33.8882 128.815 46.7941L105.597 59.6382C101.349 51.9604 94.6352 45.9409 86.541 42.554C78.4468 39.1671 69.4465 38.6112 60.997 40.9762C52.5476 43.3412 45.1436 48.4887 39.9838 55.5854C34.824 62.6821 32.2104 71.3125 32.5661 80.0795C32.9217 88.8465 36.2259 97.2369 41.9436 103.892C47.6613 110.548 55.4579 115.078 64.0712 116.751C72.6844 118.424 81.6102 117.141 89.4034 113.109C97.1966 109.078 103.401 102.534 107.012 94.5378L131.195 105.459Z" fill="#00656A"/>
<path d="M9.62736 73.5867C0.873158 54.3658 15.7044 41.2677 24.2143 37.1214C17.7225 33.6059 -5.79848 42.5498 1.72414 33.0677C13.767 15.0964 30.088 20.302 36.7431 25.1512C37.2813 9.15243 44.792 4.67031 54.8003 1.19416C64.8086 -2.28199 66.7943 3.72277 62.7871 6.71322C59.5814 9.10558 54.4292 17.0267 52.2538 20.6882C59.7633 16.7061 71.2728 12.7335 81.7597 18.2585C95.2406 26.2907 91.7346 28.7823 84.7323 29.7656C79.1304 30.5523 69.0593 32.3949 64.724 33.2179C74.7144 37.2418 80.175 53.7548 76.6703 55.7465C73.8665 57.3398 63.8465 51.7159 59.187 48.7048C85.0992 85.5667 87.1676 126.772 84.9628 142.766C81.3629 142.758 72.7946 143.404 68.9605 143.728C70.2511 105.731 53.3024 70.1908 44.6668 57.1702C45.1517 63.5047 45.1215 76.1713 41.1215 76.1618C31.5301 72.5389 28.8276 59.6324 28.6752 53.632C25.174 54.1237 12.119 77.0926 9.62736 73.5867Z" fill="#C09665"/>
</svg>
