<svg width="26" height="22" viewBox="0 0 26 22" fill="none" xmlns="http://www.w3.org/2000/svg">
<path d="M2.52222 21.0368C1.82861 21.0368 1.23505 20.7844 0.741533 20.2797C0.247178 19.7741 0 19.1666 0 18.4572V2.97994C0 2.27056 0.247178 1.66351 0.741533 1.15878C1.23505 0.653186 1.82861 0.400391 2.52222 0.400391H22.7C23.3936 0.400391 23.9876 0.653186 24.4819 1.15878C24.9755 1.66351 25.2222 2.27056 25.2222 2.97994V18.4572C25.2222 19.1666 24.9755 19.7741 24.4819 20.2797C23.9876 20.7844 23.3936 21.0368 22.7 21.0368H2.52222ZM12.6111 11.7826C12.7162 11.7826 12.8263 11.7663 12.9415 11.7336C13.0575 11.7018 13.1681 11.6537 13.2732 11.5892L22.1956 5.88192C22.3637 5.77444 22.4898 5.64031 22.5739 5.47952C22.658 5.31786 22.7 5.14031 22.7 4.94684C22.7 4.51692 22.5213 4.19447 22.164 3.97951C21.8067 3.76455 21.4389 3.7753 21.0606 4.01175L12.6111 9.4288L4.16167 4.01175C3.78333 3.7753 3.41551 3.76971 3.05819 3.99499C2.70088 4.22113 2.52222 4.53841 2.52222 4.94684C2.52222 5.1618 2.56426 5.34968 2.64833 5.51047C2.73241 5.67212 2.85852 5.79594 3.02667 5.88192L11.949 11.5892C12.0541 11.6537 12.1647 11.7018 12.2807 11.7336C12.3959 11.7663 12.506 11.7826 12.6111 11.7826V11.7826Z" fill="#4F4F4F"/>
</svg>
