<svg width="62" height="97" viewBox="0 0 62 97" fill="none" xmlns="http://www.w3.org/2000/svg">
<path d="M6.46554 49.4185C0.586498 36.5103 10.5467 27.7141 16.2617 24.9295C11.902 22.5687 -3.89397 28.5751 1.15799 22.2073C9.24562 10.1383 20.2063 13.6342 24.6756 16.8908C25.037 6.14648 30.081 3.13644 36.8023 0.801963C43.5235 -1.53251 44.8571 2.50009 42.166 4.50839C40.0131 6.11503 36.5531 11.4346 35.0921 13.8935C40.1353 11.2193 47.8647 8.55141 54.9074 12.2618C63.9607 17.656 61.6062 19.3293 56.9037 19.9897C53.1416 20.5179 46.3782 21.7554 43.4667 22.3081C50.176 25.0104 53.8432 36.1001 51.4895 37.4376C49.6065 38.5076 42.8774 34.7308 39.7483 32.7086C57.1501 57.4639 58.5392 85.1359 57.0585 95.8775C54.6409 95.8717 48.8867 96.3057 46.3118 96.5235C47.1786 71.0058 35.7964 47.1379 29.9969 38.3937C30.3226 42.6478 30.3023 51.1543 27.616 51.1479C21.1748 48.7149 19.3598 40.0473 19.2575 36.0176C16.9062 36.3478 8.13886 51.773 6.46554 49.4185Z" fill="#FAFAFA"/>
</svg>
